<mxfile host="app.diagrams.net" agent="Mozilla/5.0 (Windows NT 10.0; Win64; x64) AppleWebKit/537.36 (KHTML, like Gecko) Chrome/135.0.0.0 Safari/537.36" version="26.2.8">
  <diagram id="piDafpqhtRUU5qUU-vj8" name="Page-1">
    <mxGraphModel dx="5172" dy="3497" grid="1" gridSize="10" guides="1" tooltips="1" connect="1" arrows="1" fold="1" page="1" pageScale="1" pageWidth="827" pageHeight="1169" math="0" shadow="0">
      <root>
        <mxCell id="0" />
        <mxCell id="1" parent="0" />
        <mxCell id="q8RJgFYdpAnxfDV16Ezr-94" value="" style="strokeWidth=1;shadow=0;dashed=0;align=center;html=1;shape=mxgraph.mockup.containers.browserWindow;rSize=0;strokeColor=default;strokeColor2=#008cff;strokeColor3=#c4c4c4;mainText=,;recursiveResize=0;" vertex="1" parent="1">
          <mxGeometry x="-2370" y="-50" width="1560" height="990" as="geometry" />
        </mxCell>
        <mxCell id="q8RJgFYdpAnxfDV16Ezr-95" value="Page 1" style="strokeWidth=1;shadow=0;dashed=0;align=center;html=1;shape=mxgraph.mockup.containers.anchor;fontSize=17;fontColor=#666666;align=left;whiteSpace=wrap;" vertex="1" parent="q8RJgFYdpAnxfDV16Ezr-94">
          <mxGeometry x="60" y="12" width="110" height="26" as="geometry" />
        </mxCell>
        <mxCell id="q8RJgFYdpAnxfDV16Ezr-96" value="https://www.draw.io" style="strokeWidth=1;shadow=0;dashed=0;align=center;html=1;shape=mxgraph.mockup.containers.anchor;rSize=0;fontSize=17;fontColor=#666666;align=left;" vertex="1" parent="q8RJgFYdpAnxfDV16Ezr-94">
          <mxGeometry x="130" y="60" width="250" height="26" as="geometry" />
        </mxCell>
        <mxCell id="q8RJgFYdpAnxfDV16Ezr-97" value="" style="verticalLabelPosition=bottom;shadow=0;dashed=0;align=center;html=1;verticalAlign=top;strokeWidth=1;shape=mxgraph.mockup.markup.line;strokeColor=#999999;direction=north;" vertex="1" parent="q8RJgFYdpAnxfDV16Ezr-94">
          <mxGeometry x="27" y="110" width="20" height="870" as="geometry" />
        </mxCell>
        <mxCell id="q8RJgFYdpAnxfDV16Ezr-98" value="" style="sketch=0;pointerEvents=1;shadow=0;dashed=0;html=1;strokeColor=none;fillColor=#505050;labelPosition=center;verticalLabelPosition=bottom;verticalAlign=top;outlineConnect=0;align=center;shape=mxgraph.office.devices.video_camera;" vertex="1" parent="q8RJgFYdpAnxfDV16Ezr-94">
          <mxGeometry x="7" y="130" width="20" height="10" as="geometry" />
        </mxCell>
        <mxCell id="q8RJgFYdpAnxfDV16Ezr-99" value="" style="sketch=0;pointerEvents=1;shadow=0;dashed=0;html=1;strokeColor=none;fillColor=#505050;labelPosition=center;verticalLabelPosition=bottom;verticalAlign=top;outlineConnect=0;align=center;shape=mxgraph.office.devices.tv;" vertex="1" parent="q8RJgFYdpAnxfDV16Ezr-94">
          <mxGeometry x="8" y="170" width="19" height="15" as="geometry" />
        </mxCell>
        <mxCell id="q8RJgFYdpAnxfDV16Ezr-100" value="" style="html=1;verticalLabelPosition=bottom;align=center;labelBackgroundColor=#ffffff;verticalAlign=top;strokeWidth=2;strokeColor=default;shadow=0;dashed=0;shape=mxgraph.ios7.icons.looking_glass;" vertex="1" parent="q8RJgFYdpAnxfDV16Ezr-94">
          <mxGeometry x="11" y="220" width="12" height="10" as="geometry" />
        </mxCell>
        <mxCell id="q8RJgFYdpAnxfDV16Ezr-101" value="" style="html=1;verticalLabelPosition=bottom;align=center;labelBackgroundColor=#ffffff;verticalAlign=top;strokeWidth=2;strokeColor=light-dark(#050505, #32A0FF);shadow=0;dashed=0;shape=mxgraph.ios7.icons.bell;" vertex="1" parent="q8RJgFYdpAnxfDV16Ezr-94">
          <mxGeometry x="11" y="270" width="12" height="13.1" as="geometry" />
        </mxCell>
        <mxCell id="q8RJgFYdpAnxfDV16Ezr-102" value="" style="image;aspect=fixed;html=1;points=[];align=center;fontSize=12;image=img/lib/azure2/general/Download.svg;" vertex="1" parent="q8RJgFYdpAnxfDV16Ezr-94">
          <mxGeometry x="6.04" y="320" width="22.93" height="24" as="geometry" />
        </mxCell>
        <mxCell id="q8RJgFYdpAnxfDV16Ezr-103" value="" style="shape=mxgraph.cisco.storage.diskette;html=1;pointerEvents=1;dashed=0;fillColor=light-dark(#000000,#000000);strokeColor=#ffffff;strokeWidth=2;verticalLabelPosition=bottom;verticalAlign=top;align=center;outlineConnect=0;" vertex="1" parent="q8RJgFYdpAnxfDV16Ezr-94">
          <mxGeometry x="297" y="120" width="20" height="20" as="geometry" />
        </mxCell>
        <mxCell id="q8RJgFYdpAnxfDV16Ezr-104" value="" style="strokeWidth=1;shadow=0;dashed=0;align=center;html=1;shape=mxgraph.mockup.containers.marginRect2;rectMarginTop=32;strokeColor=light-dark(#000000,#000000);gradientColor=none;whiteSpace=wrap;" vertex="1" parent="q8RJgFYdpAnxfDV16Ezr-94">
          <mxGeometry x="285" y="160" width="1250" height="820" as="geometry" />
        </mxCell>
        <mxCell id="q8RJgFYdpAnxfDV16Ezr-108" value="" style="strokeWidth=1;shadow=0;dashed=0;align=center;html=1;shape=mxgraph.mockup.containers.topButton;rSize=5;strokeColor=light-dark(#000000,#000000);fillColor=light-dark(#000000, #229afd);gradientColor=none;resizeWidth=1;movable=0;deletable=1;" vertex="1" parent="q8RJgFYdpAnxfDV16Ezr-104">
          <mxGeometry width="1250" height="7" relative="1" as="geometry">
            <mxPoint y="25" as="offset" />
          </mxGeometry>
        </mxCell>
        <mxCell id="q8RJgFYdpAnxfDV16Ezr-65" value="device name" style="strokeWidth=1;shadow=0;dashed=0;align=center;html=1;shape=mxgraph.mockup.forms.anchor;align=right;spacingRight=2;fontColor=#666666;" vertex="1" parent="q8RJgFYdpAnxfDV16Ezr-104">
          <mxGeometry x="485" y="200" width="50" height="18" as="geometry" />
        </mxCell>
        <mxCell id="q8RJgFYdpAnxfDV16Ezr-66" value="" style="strokeWidth=1;shadow=0;dashed=0;align=center;html=1;shape=mxgraph.mockup.forms.rrect;fillColor=#ffffff;rSize=0;fontColor=#666666;align=left;spacingLeft=3;strokeColor=#999999;" vertex="1" parent="q8RJgFYdpAnxfDV16Ezr-104">
          <mxGeometry x="535" y="200" width="350" height="18" as="geometry" />
        </mxCell>
        <mxCell id="q8RJgFYdpAnxfDV16Ezr-67" value="mathod&amp;nbsp;" style="strokeWidth=1;shadow=0;dashed=0;align=center;html=1;shape=mxgraph.mockup.forms.anchor;align=right;spacingRight=2;fontColor=#666666;" vertex="1" parent="q8RJgFYdpAnxfDV16Ezr-104">
          <mxGeometry x="485" y="235" width="50" height="18" as="geometry" />
        </mxCell>
        <mxCell id="q8RJgFYdpAnxfDV16Ezr-68" value="" style="strokeWidth=1;shadow=0;dashed=0;align=center;html=1;shape=mxgraph.mockup.forms.rrect;fillColor=#ffffff;rSize=0;fontColor=#666666;align=left;spacingLeft=3;strokeColor=#999999;" vertex="1" parent="q8RJgFYdpAnxfDV16Ezr-104">
          <mxGeometry x="535" y="235" width="350" height="18" as="geometry" />
        </mxCell>
        <mxCell id="q8RJgFYdpAnxfDV16Ezr-69" value="SN" style="strokeWidth=1;shadow=0;dashed=0;align=center;html=1;shape=mxgraph.mockup.forms.anchor;align=right;spacingRight=2;fontColor=#666666;" vertex="1" parent="q8RJgFYdpAnxfDV16Ezr-104">
          <mxGeometry x="485" y="270" width="50" height="18" as="geometry" />
        </mxCell>
        <mxCell id="q8RJgFYdpAnxfDV16Ezr-70" value="fred@jgraph.com" style="strokeWidth=1;shadow=0;dashed=0;align=center;html=1;shape=mxgraph.mockup.forms.rrect;fillColor=#ffffff;rSize=0;fontColor=#666666;align=left;spacingLeft=3;strokeColor=#999999;" vertex="1" parent="q8RJgFYdpAnxfDV16Ezr-104">
          <mxGeometry x="535" y="270" width="350" height="18" as="geometry" />
        </mxCell>
        <mxCell id="q8RJgFYdpAnxfDV16Ezr-71" value="grup name" style="strokeWidth=1;shadow=0;dashed=0;align=center;html=1;shape=mxgraph.mockup.forms.anchor;align=right;spacingRight=2;fontColor=#666666;" vertex="1" parent="q8RJgFYdpAnxfDV16Ezr-104">
          <mxGeometry x="485" y="305" width="50" height="18" as="geometry" />
        </mxCell>
        <mxCell id="q8RJgFYdpAnxfDV16Ezr-72" value="" style="strokeWidth=1;shadow=0;dashed=0;align=center;html=1;shape=mxgraph.mockup.forms.rrect;fillColor=#ffffff;rSize=0;fontColor=#666666;align=left;spacingLeft=3;strokeColor=#999999;" vertex="1" parent="q8RJgFYdpAnxfDV16Ezr-104">
          <mxGeometry x="535" y="305" width="350" height="18" as="geometry" />
        </mxCell>
        <mxCell id="q8RJgFYdpAnxfDV16Ezr-73" value="user name" style="strokeWidth=1;shadow=0;dashed=0;align=center;html=1;shape=mxgraph.mockup.forms.anchor;align=right;spacingRight=2;fontColor=#666666;" vertex="1" parent="q8RJgFYdpAnxfDV16Ezr-104">
          <mxGeometry x="485" y="340" width="50" height="18" as="geometry" />
        </mxCell>
        <mxCell id="q8RJgFYdpAnxfDV16Ezr-74" value="" style="strokeWidth=1;shadow=0;dashed=0;align=center;html=1;shape=mxgraph.mockup.forms.rrect;fillColor=#ffffff;rSize=0;fontColor=#666666;align=left;spacingLeft=3;strokeColor=#999999;" vertex="1" parent="q8RJgFYdpAnxfDV16Ezr-104">
          <mxGeometry x="535" y="340" width="350" height="18" as="geometry" />
        </mxCell>
        <mxCell id="q8RJgFYdpAnxfDV16Ezr-84" value="" style="strokeWidth=1;shadow=0;dashed=0;align=center;html=1;shape=mxgraph.mockup.forms.rrect;fillColor=#ffffff;rSize=0;fontColor=#666666;align=left;spacingLeft=3;strokeColor=#999999;" vertex="1" parent="q8RJgFYdpAnxfDV16Ezr-104">
          <mxGeometry x="535" y="380" width="350" height="18" as="geometry" />
        </mxCell>
        <mxCell id="q8RJgFYdpAnxfDV16Ezr-85" value="add" style="rounded=1;fillColor=#0057D8;strokeColor=none;html=1;whiteSpace=wrap;fontColor=#ffffff;align=center;verticalAlign=middle;fontStyle=0;fontSize=12;sketch=0;" vertex="1" parent="q8RJgFYdpAnxfDV16Ezr-104">
          <mxGeometry x="695" y="440" width="86" height="33" as="geometry" />
        </mxCell>
        <mxCell id="q8RJgFYdpAnxfDV16Ezr-86" value="calcel" style="rounded=1;fillColor=#0057D8;strokeColor=none;html=1;whiteSpace=wrap;fontColor=#ffffff;align=center;verticalAlign=middle;fontStyle=0;fontSize=12;sketch=0;" vertex="1" parent="q8RJgFYdpAnxfDV16Ezr-104">
          <mxGeometry x="799" y="440" width="86" height="33" as="geometry" />
        </mxCell>
        <mxCell id="q8RJgFYdpAnxfDV16Ezr-88" value="save and" style="rounded=1;fillColor=#0057D8;strokeColor=none;html=1;whiteSpace=wrap;fontColor=#ffffff;align=center;verticalAlign=middle;fontStyle=0;fontSize=12;sketch=0;" vertex="1" parent="q8RJgFYdpAnxfDV16Ezr-104">
          <mxGeometry x="595" y="440" width="86" height="33" as="geometry" />
        </mxCell>
        <mxCell id="q8RJgFYdpAnxfDV16Ezr-89" value="password" style="strokeWidth=1;shadow=0;dashed=0;align=center;html=1;shape=mxgraph.mockup.forms.anchor;align=right;spacingRight=2;fontColor=#666666;" vertex="1" parent="q8RJgFYdpAnxfDV16Ezr-104">
          <mxGeometry x="485" y="380" width="50" height="18" as="geometry" />
        </mxCell>
        <mxCell id="q8RJgFYdpAnxfDV16Ezr-110" value="" style="verticalLabelPosition=bottom;shadow=0;dashed=0;align=center;html=1;verticalAlign=top;strokeWidth=1;shape=mxgraph.mockup.markup.line;strokeColor=#999999;" vertex="1" parent="q8RJgFYdpAnxfDV16Ezr-94">
          <mxGeometry x="290" y="190" width="1225" height="20" as="geometry" />
        </mxCell>
        <mxCell id="q8RJgFYdpAnxfDV16Ezr-120" value="" style="verticalLabelPosition=bottom;shadow=0;dashed=0;align=center;html=1;verticalAlign=top;strokeWidth=1;shape=mxgraph.mockup.forms.horSlider;strokeColor=#999999;sliderStyle=basic;sliderPos=20;handleStyle=circle;fillColor2=#ddeeff;direction=north;" vertex="1" parent="q8RJgFYdpAnxfDV16Ezr-94">
          <mxGeometry x="260" y="150" width="30" height="840" as="geometry" />
        </mxCell>
        <mxCell id="q8RJgFYdpAnxfDV16Ezr-121" value="" style="html=1;verticalLabelPosition=bottom;align=center;labelBackgroundColor=#ffffff;verticalAlign=top;strokeWidth=2;strokeColor=light-dark(#000000,#000000);shadow=0;dashed=0;shape=mxgraph.ios7.icons.add;" vertex="1" parent="q8RJgFYdpAnxfDV16Ezr-94">
          <mxGeometry x="330" y="117.5" width="20" height="22.5" as="geometry" />
        </mxCell>
        <mxCell id="q8RJgFYdpAnxfDV16Ezr-134" value="" style="shape=image;html=1;verticalAlign=top;verticalLabelPosition=bottom;labelBackgroundColor=#ffffff;imageAspect=0;aspect=fixed;image=https://cdn1.iconfinder.com/data/icons/material-core/18/delete-128.png" vertex="1" parent="q8RJgFYdpAnxfDV16Ezr-94">
          <mxGeometry x="360" y="117.5" width="20" height="20" as="geometry" />
        </mxCell>
        <mxCell id="q8RJgFYdpAnxfDV16Ezr-133" value="" style="sketch=0;aspect=fixed;pointerEvents=1;shadow=0;dashed=0;html=1;strokeColor=none;labelPosition=center;verticalLabelPosition=bottom;verticalAlign=top;align=center;fillColor=light-dark(#000000, #bfd3ff);shape=mxgraph.mscae.enterprise.import_generic" vertex="1" parent="q8RJgFYdpAnxfDV16Ezr-94">
          <mxGeometry x="390" y="117.5" width="16" height="20" as="geometry" />
        </mxCell>
        <mxCell id="q8RJgFYdpAnxfDV16Ezr-56" value="" style="strokeWidth=1;shadow=0;dashed=0;align=center;html=1;shape=mxgraph.mockup.containers.browserWindow;rSize=0;strokeColor=default;strokeColor2=#008cff;strokeColor3=#c4c4c4;mainText=,;recursiveResize=0;" vertex="1" parent="1">
          <mxGeometry x="-710" y="-20" width="1560" height="990" as="geometry" />
        </mxCell>
        <mxCell id="q8RJgFYdpAnxfDV16Ezr-57" value="Page 1" style="strokeWidth=1;shadow=0;dashed=0;align=center;html=1;shape=mxgraph.mockup.containers.anchor;fontSize=17;fontColor=#666666;align=left;whiteSpace=wrap;" vertex="1" parent="q8RJgFYdpAnxfDV16Ezr-56">
          <mxGeometry x="60" y="12" width="110" height="26" as="geometry" />
        </mxCell>
        <mxCell id="q8RJgFYdpAnxfDV16Ezr-58" value="https://www.draw.io" style="strokeWidth=1;shadow=0;dashed=0;align=center;html=1;shape=mxgraph.mockup.containers.anchor;rSize=0;fontSize=17;fontColor=#666666;align=left;" vertex="1" parent="q8RJgFYdpAnxfDV16Ezr-56">
          <mxGeometry x="130" y="60" width="250" height="26" as="geometry" />
        </mxCell>
        <mxCell id="q8RJgFYdpAnxfDV16Ezr-59" value="" style="verticalLabelPosition=bottom;shadow=0;dashed=0;align=center;html=1;verticalAlign=top;strokeWidth=1;shape=mxgraph.mockup.markup.line;strokeColor=#999999;direction=north;" vertex="1" parent="q8RJgFYdpAnxfDV16Ezr-56">
          <mxGeometry x="27" y="110" width="20" height="870" as="geometry" />
        </mxCell>
        <mxCell id="q8RJgFYdpAnxfDV16Ezr-60" value="" style="sketch=0;pointerEvents=1;shadow=0;dashed=0;html=1;strokeColor=none;fillColor=#505050;labelPosition=center;verticalLabelPosition=bottom;verticalAlign=top;outlineConnect=0;align=center;shape=mxgraph.office.devices.video_camera;" vertex="1" parent="q8RJgFYdpAnxfDV16Ezr-56">
          <mxGeometry x="7" y="130" width="20" height="10" as="geometry" />
        </mxCell>
        <mxCell id="q8RJgFYdpAnxfDV16Ezr-61" value="" style="sketch=0;pointerEvents=1;shadow=0;dashed=0;html=1;strokeColor=none;fillColor=#505050;labelPosition=center;verticalLabelPosition=bottom;verticalAlign=top;outlineConnect=0;align=center;shape=mxgraph.office.devices.tv;" vertex="1" parent="q8RJgFYdpAnxfDV16Ezr-56">
          <mxGeometry x="8" y="170" width="19" height="15" as="geometry" />
        </mxCell>
        <mxCell id="q8RJgFYdpAnxfDV16Ezr-62" value="" style="html=1;verticalLabelPosition=bottom;align=center;labelBackgroundColor=#ffffff;verticalAlign=top;strokeWidth=2;strokeColor=default;shadow=0;dashed=0;shape=mxgraph.ios7.icons.looking_glass;" vertex="1" parent="q8RJgFYdpAnxfDV16Ezr-56">
          <mxGeometry x="11" y="220" width="12" height="10" as="geometry" />
        </mxCell>
        <mxCell id="q8RJgFYdpAnxfDV16Ezr-63" value="" style="html=1;verticalLabelPosition=bottom;align=center;labelBackgroundColor=#ffffff;verticalAlign=top;strokeWidth=2;strokeColor=light-dark(#050505, #32A0FF);shadow=0;dashed=0;shape=mxgraph.ios7.icons.bell;" vertex="1" parent="q8RJgFYdpAnxfDV16Ezr-56">
          <mxGeometry x="11" y="270" width="12" height="13.1" as="geometry" />
        </mxCell>
        <mxCell id="q8RJgFYdpAnxfDV16Ezr-64" value="" style="image;aspect=fixed;html=1;points=[];align=center;fontSize=12;image=img/lib/azure2/general/Download.svg;" vertex="1" parent="q8RJgFYdpAnxfDV16Ezr-56">
          <mxGeometry x="6.04" y="320" width="22.93" height="24" as="geometry" />
        </mxCell>
        <mxCell id="q8RJgFYdpAnxfDV16Ezr-81" value="" style="shape=mxgraph.cisco.storage.diskette;html=1;pointerEvents=1;dashed=0;fillColor=light-dark(#000000,#000000);strokeColor=#ffffff;strokeWidth=2;verticalLabelPosition=bottom;verticalAlign=top;align=center;outlineConnect=0;" vertex="1" parent="q8RJgFYdpAnxfDV16Ezr-56">
          <mxGeometry x="297" y="120" width="20" height="20" as="geometry" />
        </mxCell>
        <mxCell id="q8RJgFYdpAnxfDV16Ezr-36" value="" style="strokeWidth=1;shadow=0;dashed=0;align=center;html=1;shape=mxgraph.mockup.containers.marginRect2;rectMarginTop=32;strokeColor=light-dark(#000000,#000000);gradientColor=none;whiteSpace=wrap;" vertex="1" parent="q8RJgFYdpAnxfDV16Ezr-56">
          <mxGeometry x="285" y="160" width="1250" height="820" as="geometry" />
        </mxCell>
        <mxCell id="q8RJgFYdpAnxfDV16Ezr-37" value="ubication" style="strokeColor=inherit;fillColor=inherit;gradientColor=inherit;strokeWidth=1;shadow=0;dashed=0;align=center;html=1;shape=mxgraph.mockup.containers.rrect;rSize=0;fontSize=17;fontColor=#666666;gradientColor=none;" vertex="1" parent="q8RJgFYdpAnxfDV16Ezr-36">
          <mxGeometry width="60" height="25" relative="1" as="geometry">
            <mxPoint x="10" as="offset" />
          </mxGeometry>
        </mxCell>
        <mxCell id="q8RJgFYdpAnxfDV16Ezr-38" value="Tab 2" style="strokeWidth=1;shadow=0;dashed=0;align=center;html=1;shape=mxgraph.mockup.containers.rrect;rSize=0;fontSize=17;strokeColor=#36393d;fillColor=#eeeeee;" vertex="1" parent="q8RJgFYdpAnxfDV16Ezr-36">
          <mxGeometry width="60" height="25" relative="1" as="geometry">
            <mxPoint x="75" as="offset" />
          </mxGeometry>
        </mxCell>
        <mxCell id="q8RJgFYdpAnxfDV16Ezr-39" value="filters" style="strokeColor=inherit;fillColor=inherit;gradientColor=inherit;strokeWidth=1;shadow=0;dashed=0;align=center;html=1;shape=mxgraph.mockup.containers.rrect;rSize=0;fontSize=17;fontColor=#666666;gradientColor=none;" vertex="1" parent="q8RJgFYdpAnxfDV16Ezr-36">
          <mxGeometry width="60" height="25" relative="1" as="geometry">
            <mxPoint x="140" as="offset" />
          </mxGeometry>
        </mxCell>
        <mxCell id="q8RJgFYdpAnxfDV16Ezr-40" value="" style="strokeWidth=1;shadow=0;dashed=0;align=center;html=1;shape=mxgraph.mockup.containers.topButton;rSize=5;strokeColor=light-dark(#000000,#000000);fillColor=light-dark(#000000, #229afd);gradientColor=none;resizeWidth=1;movable=0;deletable=1;" vertex="1" parent="q8RJgFYdpAnxfDV16Ezr-36">
          <mxGeometry width="1250" height="7" relative="1" as="geometry">
            <mxPoint y="25" as="offset" />
          </mxGeometry>
        </mxCell>
        <mxCell id="q8RJgFYdpAnxfDV16Ezr-2" value="" style="shape=mxgraph.mockup.containers.videoPlayer;shadow=0;dashed=0;strokeWidth=1;strokeColor=#000000;strokeColor2=none;strokeColor3=none;fillColor=#ffffff;fillColor2=none;gradientColor=none;align=right;verticalAlign=bottom;html=1;fontColor=#000000;fontSize=12;fontStyle=0;fontFamily=Courier New;barHeight=0;barPos=0;rounded=0;verticalLabelPosition=middle;" vertex="1" parent="q8RJgFYdpAnxfDV16Ezr-56">
          <mxGeometry x="1215" y="650" width="300" height="200" as="geometry" />
        </mxCell>
        <mxCell id="q8RJgFYdpAnxfDV16Ezr-15" value="" style="verticalLabelPosition=bottom;shadow=0;dashed=0;align=center;html=1;verticalAlign=top;strokeWidth=1;shape=mxgraph.mockup.markup.line;strokeColor=#999999;" vertex="1" parent="q8RJgFYdpAnxfDV16Ezr-56">
          <mxGeometry x="290" y="190" width="1225" height="20" as="geometry" />
        </mxCell>
        <mxCell id="q8RJgFYdpAnxfDV16Ezr-17" value="" style="verticalLabelPosition=bottom;shadow=0;dashed=0;align=center;html=1;verticalAlign=top;strokeWidth=1;shape=mxgraph.mockup.misc.playbackControls;sketch=0;strokeColor=#999999;fillColor2=#99ddff;strokeColor2=none;fillColor3=#ffffff;strokeColor3=none;" vertex="1" parent="q8RJgFYdpAnxfDV16Ezr-56">
          <mxGeometry x="615" y="790" width="250" height="30" as="geometry" />
        </mxCell>
        <mxCell id="q8RJgFYdpAnxfDV16Ezr-19" value="" style="shape=mxgraph.mockup.containers.videoPlayer;shadow=0;dashed=0;strokeWidth=1;strokeColor=#000000;strokeColor2=none;strokeColor3=none;fillColor=#ffffff;fillColor2=none;gradientColor=none;align=right;verticalAlign=bottom;html=1;fontColor=#000000;fontSize=12;fontStyle=0;fontFamily=Courier New;barHeight=0;barPos=0;rounded=0;verticalLabelPosition=middle;" vertex="1" parent="q8RJgFYdpAnxfDV16Ezr-56">
          <mxGeometry x="1215" y="435" width="300" height="200" as="geometry" />
        </mxCell>
        <mxCell id="q8RJgFYdpAnxfDV16Ezr-20" value="" style="shape=mxgraph.mockup.containers.videoPlayer;shadow=0;dashed=0;strokeWidth=1;strokeColor=#000000;strokeColor2=none;strokeColor3=none;fillColor=#ffffff;fillColor2=none;gradientColor=none;align=right;verticalAlign=bottom;html=1;fontColor=#000000;fontSize=12;fontStyle=0;fontFamily=Courier New;barHeight=0;barPos=0;rounded=0;verticalLabelPosition=middle;" vertex="1" parent="q8RJgFYdpAnxfDV16Ezr-56">
          <mxGeometry x="1215" y="220" width="300" height="200" as="geometry" />
        </mxCell>
        <mxCell id="q8RJgFYdpAnxfDV16Ezr-21" value="" style="shape=mxgraph.mockup.containers.videoPlayer;shadow=0;dashed=0;strokeWidth=1;strokeColor=#000000;strokeColor2=none;strokeColor3=none;fillColor=#ffffff;fillColor2=none;gradientColor=none;align=right;verticalAlign=bottom;html=1;fontColor=#000000;fontSize=12;fontStyle=0;fontFamily=Courier New;barHeight=0;barPos=0;rounded=0;verticalLabelPosition=middle;" vertex="1" parent="q8RJgFYdpAnxfDV16Ezr-56">
          <mxGeometry x="305" y="220" width="870" height="560" as="geometry" />
        </mxCell>
        <mxCell id="q8RJgFYdpAnxfDV16Ezr-24" value="camID" style="text;align=left;verticalAlign=middle;rounded=0;fontStyle=3;fontColor=default;fontSize=15;" vertex="1" parent="q8RJgFYdpAnxfDV16Ezr-56">
          <mxGeometry x="315" y="220" width="90" height="30" as="geometry" />
        </mxCell>
        <mxCell id="q8RJgFYdpAnxfDV16Ezr-26" value="00:13:57" style="text;align=left;verticalAlign=middle;rounded=0;fontStyle=3;fontColor=default;fontSize=15;" vertex="1" parent="q8RJgFYdpAnxfDV16Ezr-56">
          <mxGeometry x="1105" y="750" width="90" height="30" as="geometry" />
        </mxCell>
        <mxCell id="q8RJgFYdpAnxfDV16Ezr-27" value="camID" style="text;align=left;verticalAlign=middle;rounded=0;fontStyle=3;fontColor=default;fontSize=12;" vertex="1" parent="q8RJgFYdpAnxfDV16Ezr-56">
          <mxGeometry x="1215" y="210" width="90" height="30" as="geometry" />
        </mxCell>
        <mxCell id="q8RJgFYdpAnxfDV16Ezr-28" value="camID" style="text;align=left;verticalAlign=middle;rounded=0;fontStyle=3;fontColor=default;fontSize=12;" vertex="1" parent="q8RJgFYdpAnxfDV16Ezr-56">
          <mxGeometry x="1215" y="430" width="90" height="30" as="geometry" />
        </mxCell>
        <mxCell id="q8RJgFYdpAnxfDV16Ezr-29" value="camID" style="text;align=left;verticalAlign=middle;rounded=0;fontStyle=3;fontColor=default;fontSize=12;" vertex="1" parent="q8RJgFYdpAnxfDV16Ezr-56">
          <mxGeometry x="1215" y="640" width="90" height="30" as="geometry" />
        </mxCell>
        <mxCell id="q8RJgFYdpAnxfDV16Ezr-42" value="" style="verticalLabelPosition=bottom;shadow=0;dashed=0;align=center;html=1;verticalAlign=top;strokeWidth=1;shape=mxgraph.mockup.forms.horSlider;strokeColor=#999999;sliderStyle=basic;sliderPos=20;handleStyle=circle;fillColor2=#ddeeff;direction=north;" vertex="1" parent="q8RJgFYdpAnxfDV16Ezr-56">
          <mxGeometry x="260" y="150" width="30" height="840" as="geometry" />
        </mxCell>
        <mxCell id="q8RJgFYdpAnxfDV16Ezr-91" value="" style="html=1;verticalLabelPosition=bottom;align=center;labelBackgroundColor=#ffffff;verticalAlign=top;strokeWidth=2;strokeColor=light-dark(#000000,#000000);shadow=0;dashed=0;shape=mxgraph.ios7.icons.add;" vertex="1" parent="q8RJgFYdpAnxfDV16Ezr-56">
          <mxGeometry x="330" y="117.5" width="20" height="22.5" as="geometry" />
        </mxCell>
        <mxCell id="q8RJgFYdpAnxfDV16Ezr-135" value="" style="shape=image;html=1;verticalAlign=top;verticalLabelPosition=bottom;labelBackgroundColor=#ffffff;imageAspect=0;aspect=fixed;image=https://cdn1.iconfinder.com/data/icons/material-core/18/delete-128.png" vertex="1" parent="q8RJgFYdpAnxfDV16Ezr-56">
          <mxGeometry x="360" y="117.5" width="20" height="20" as="geometry" />
        </mxCell>
        <mxCell id="q8RJgFYdpAnxfDV16Ezr-136" value="" style="sketch=0;aspect=fixed;pointerEvents=1;shadow=0;dashed=0;html=1;strokeColor=none;labelPosition=center;verticalLabelPosition=bottom;verticalAlign=top;align=center;fillColor=light-dark(#000000, #bfd3ff);shape=mxgraph.mscae.enterprise.import_generic" vertex="1" parent="q8RJgFYdpAnxfDV16Ezr-56">
          <mxGeometry x="390" y="118.75" width="16" height="20" as="geometry" />
        </mxCell>
        <mxCell id="q8RJgFYdpAnxfDV16Ezr-22" value="" style="verticalLabelPosition=bottom;shadow=0;dashed=0;align=center;html=1;verticalAlign=top;strokeWidth=1;shape=mxgraph.mockup.markup.line;strokeColor=#999999;direction=north;" vertex="1" parent="1">
          <mxGeometry x="-445" y="90" width="20" height="1000" as="geometry" />
        </mxCell>
        <mxCell id="q8RJgFYdpAnxfDV16Ezr-30" value="cameras" style="swimlane;strokeColor=#999999;swimlaneFillColor=#FFFFFF;fillColor=#ffffff;fontColor=#008CFF;fontStyle=0;childLayout=stackLayout;horizontal=1;startSize=30;horizontalStack=0;resizeParent=1;resizeParentMax=0;resizeLast=0;collapsible=0;marginBottom=0;whiteSpace=wrap;html=1;fontSize=17;" vertex="1" parent="1">
          <mxGeometry x="-663" y="250" width="220" height="200" as="geometry" />
        </mxCell>
        <mxCell id="q8RJgFYdpAnxfDV16Ezr-31" value="Item 1" style="text;spacing=0;strokeColor=none;align=left;verticalAlign=middle;spacingLeft=7;spacingRight=10;overflow=hidden;points=[[0,0.5],[1,0.5]];portConstraint=eastwest;rotatable=0;whiteSpace=wrap;html=1;fillColor=none;fontColor=#666666;fontSize=17;" vertex="1" parent="q8RJgFYdpAnxfDV16Ezr-30">
          <mxGeometry y="30" width="220" height="20" as="geometry" />
        </mxCell>
        <mxCell id="q8RJgFYdpAnxfDV16Ezr-32" value="Item 2" style="text;spacing=0;strokeColor=none;align=left;verticalAlign=middle;spacingLeft=7;spacingRight=10;overflow=hidden;points=[[0,0.5],[1,0.5]];portConstraint=eastwest;rotatable=0;whiteSpace=wrap;html=1;rSize=5;fillColor=none;fontColor=#666666;fontSize=17;" vertex="1" parent="q8RJgFYdpAnxfDV16Ezr-30">
          <mxGeometry y="50" width="220" height="20" as="geometry" />
        </mxCell>
        <mxCell id="q8RJgFYdpAnxfDV16Ezr-33" value="Item 3" style="text;spacing=0;strokeColor=none;align=left;verticalAlign=middle;spacingLeft=7;spacingRight=10;overflow=hidden;points=[[0,0.5],[1,0.5]];portConstraint=eastwest;rotatable=0;whiteSpace=wrap;html=1;rSize=5;fillColor=#DDEEFF;fontColor=#666666;fontSize=17;" vertex="1" parent="q8RJgFYdpAnxfDV16Ezr-30">
          <mxGeometry y="70" width="220" height="20" as="geometry" />
        </mxCell>
        <mxCell id="q8RJgFYdpAnxfDV16Ezr-34" value="Item 4" style="text;spacing=0;strokeColor=none;align=left;verticalAlign=middle;spacingLeft=7;spacingRight=10;overflow=hidden;points=[[0,0.5],[1,0.5]];portConstraint=eastwest;rotatable=0;whiteSpace=wrap;html=1;fillColor=none;fontColor=#666666;fontSize=17;" vertex="1" parent="q8RJgFYdpAnxfDV16Ezr-30">
          <mxGeometry y="90" width="220" height="20" as="geometry" />
        </mxCell>
        <mxCell id="q8RJgFYdpAnxfDV16Ezr-35" value="" style="text;spacing=0;strokeColor=none;align=left;verticalAlign=middle;spacingLeft=7;spacingRight=10;overflow=hidden;points=[[0,0.5],[1,0.5]];portConstraint=eastwest;rotatable=0;whiteSpace=wrap;html=1;fillColor=none;fontColor=#666666;fontSize=17;" vertex="1" parent="q8RJgFYdpAnxfDV16Ezr-30">
          <mxGeometry y="110" width="220" height="90" as="geometry" />
        </mxCell>
        <mxCell id="q8RJgFYdpAnxfDV16Ezr-52" value="NORMAL" style="whiteSpace=wrap;html=1;dashed=0;align=center;fontSize=12;shape=rect;fillColor=none;strokeColor=none;fontStyle=1;shadow=0;" vertex="1" parent="1">
          <mxGeometry x="-663" y="90" width="100" height="36" as="geometry" />
        </mxCell>
        <mxCell id="q8RJgFYdpAnxfDV16Ezr-53" value="PRESSED" style="whiteSpace=wrap;html=1;dashed=0;align=center;fontSize=12;shape=rect;fillColor=#999999;opacity=40;strokeColor=none;fontStyle=1;" vertex="1" parent="1">
          <mxGeometry x="-563" y="90" width="100" height="36" as="geometry" />
        </mxCell>
        <mxCell id="q8RJgFYdpAnxfDV16Ezr-54" value="Search" style="strokeWidth=1;shadow=0;dashed=0;align=center;html=1;shape=mxgraph.mockup.forms.searchBox;strokeColor=#999999;mainText=;strokeColor2=#008cff;fontColor=#666666;fontSize=17;align=left;spacingLeft=3;whiteSpace=wrap;" vertex="1" parent="1">
          <mxGeometry x="-663" y="221" width="150" height="30" as="geometry" />
        </mxCell>
        <mxCell id="q8RJgFYdpAnxfDV16Ezr-55" value="" style="shape=mxgraph.signs.tech.video_camera;html=1;pointerEvents=1;fillColor=#000000;strokeColor=none;verticalLabelPosition=bottom;verticalAlign=top;align=center;" vertex="1" parent="1">
          <mxGeometry x="-638" y="160" width="50" height="20" as="geometry" />
        </mxCell>
        <mxCell id="q8RJgFYdpAnxfDV16Ezr-122" value="" style="verticalLabelPosition=bottom;shadow=0;dashed=0;align=center;html=1;verticalAlign=top;strokeWidth=1;shape=mxgraph.mockup.markup.line;strokeColor=#999999;direction=north;" vertex="1" parent="1">
          <mxGeometry x="-2115" y="60" width="20" height="1000" as="geometry" />
        </mxCell>
        <mxCell id="q8RJgFYdpAnxfDV16Ezr-123" value="cameras" style="swimlane;strokeColor=#999999;swimlaneFillColor=#FFFFFF;fillColor=#ffffff;fontColor=#008CFF;fontStyle=0;childLayout=stackLayout;horizontal=1;startSize=30;horizontalStack=0;resizeParent=1;resizeParentMax=0;resizeLast=0;collapsible=0;marginBottom=0;whiteSpace=wrap;html=1;fontSize=17;" vertex="1" parent="1">
          <mxGeometry x="-2333" y="220" width="220" height="200" as="geometry" />
        </mxCell>
        <mxCell id="q8RJgFYdpAnxfDV16Ezr-124" value="Item 1" style="text;spacing=0;strokeColor=none;align=left;verticalAlign=middle;spacingLeft=7;spacingRight=10;overflow=hidden;points=[[0,0.5],[1,0.5]];portConstraint=eastwest;rotatable=0;whiteSpace=wrap;html=1;fillColor=none;fontColor=#666666;fontSize=17;" vertex="1" parent="q8RJgFYdpAnxfDV16Ezr-123">
          <mxGeometry y="30" width="220" height="20" as="geometry" />
        </mxCell>
        <mxCell id="q8RJgFYdpAnxfDV16Ezr-125" value="Item 2" style="text;spacing=0;strokeColor=none;align=left;verticalAlign=middle;spacingLeft=7;spacingRight=10;overflow=hidden;points=[[0,0.5],[1,0.5]];portConstraint=eastwest;rotatable=0;whiteSpace=wrap;html=1;rSize=5;fillColor=none;fontColor=#666666;fontSize=17;" vertex="1" parent="q8RJgFYdpAnxfDV16Ezr-123">
          <mxGeometry y="50" width="220" height="20" as="geometry" />
        </mxCell>
        <mxCell id="q8RJgFYdpAnxfDV16Ezr-126" value="Item 3" style="text;spacing=0;strokeColor=none;align=left;verticalAlign=middle;spacingLeft=7;spacingRight=10;overflow=hidden;points=[[0,0.5],[1,0.5]];portConstraint=eastwest;rotatable=0;whiteSpace=wrap;html=1;rSize=5;fillColor=#DDEEFF;fontColor=#666666;fontSize=17;" vertex="1" parent="q8RJgFYdpAnxfDV16Ezr-123">
          <mxGeometry y="70" width="220" height="20" as="geometry" />
        </mxCell>
        <mxCell id="q8RJgFYdpAnxfDV16Ezr-127" value="Item 4" style="text;spacing=0;strokeColor=none;align=left;verticalAlign=middle;spacingLeft=7;spacingRight=10;overflow=hidden;points=[[0,0.5],[1,0.5]];portConstraint=eastwest;rotatable=0;whiteSpace=wrap;html=1;fillColor=none;fontColor=#666666;fontSize=17;" vertex="1" parent="q8RJgFYdpAnxfDV16Ezr-123">
          <mxGeometry y="90" width="220" height="20" as="geometry" />
        </mxCell>
        <mxCell id="q8RJgFYdpAnxfDV16Ezr-128" value="" style="text;spacing=0;strokeColor=none;align=left;verticalAlign=middle;spacingLeft=7;spacingRight=10;overflow=hidden;points=[[0,0.5],[1,0.5]];portConstraint=eastwest;rotatable=0;whiteSpace=wrap;html=1;fillColor=none;fontColor=#666666;fontSize=17;" vertex="1" parent="q8RJgFYdpAnxfDV16Ezr-123">
          <mxGeometry y="110" width="220" height="90" as="geometry" />
        </mxCell>
        <mxCell id="q8RJgFYdpAnxfDV16Ezr-129" value="NORMAL" style="whiteSpace=wrap;html=1;dashed=0;align=center;fontSize=12;shape=rect;fillColor=none;strokeColor=none;fontStyle=1;shadow=0;" vertex="1" parent="1">
          <mxGeometry x="-2333" y="60" width="100" height="36" as="geometry" />
        </mxCell>
        <mxCell id="q8RJgFYdpAnxfDV16Ezr-130" value="PRESSED" style="whiteSpace=wrap;html=1;dashed=0;align=center;fontSize=12;shape=rect;fillColor=#999999;opacity=40;strokeColor=none;fontStyle=1;" vertex="1" parent="1">
          <mxGeometry x="-2233" y="60" width="100" height="36" as="geometry" />
        </mxCell>
        <mxCell id="q8RJgFYdpAnxfDV16Ezr-131" value="Search" style="strokeWidth=1;shadow=0;dashed=0;align=center;html=1;shape=mxgraph.mockup.forms.searchBox;strokeColor=#999999;mainText=;strokeColor2=#008cff;fontColor=#666666;fontSize=17;align=left;spacingLeft=3;whiteSpace=wrap;" vertex="1" parent="1">
          <mxGeometry x="-2333" y="191" width="150" height="30" as="geometry" />
        </mxCell>
        <mxCell id="q8RJgFYdpAnxfDV16Ezr-132" value="" style="shape=mxgraph.signs.tech.video_camera;html=1;pointerEvents=1;fillColor=#000000;strokeColor=none;verticalLabelPosition=bottom;verticalAlign=top;align=center;" vertex="1" parent="1">
          <mxGeometry x="-2308" y="130" width="50" height="20" as="geometry" />
        </mxCell>
        <mxCell id="q8RJgFYdpAnxfDV16Ezr-137" value="" style="strokeWidth=1;shadow=0;dashed=0;align=center;html=1;shape=mxgraph.mockup.containers.browserWindow;rSize=0;strokeColor=default;strokeColor2=#008cff;strokeColor3=#c4c4c4;mainText=,;recursiveResize=0;labelBackgroundColor=none;" vertex="1" parent="1">
          <mxGeometry x="-710" y="-1190" width="1560" height="990" as="geometry" />
        </mxCell>
        <mxCell id="q8RJgFYdpAnxfDV16Ezr-138" value="Page 1" style="strokeWidth=1;shadow=0;dashed=0;align=center;html=1;shape=mxgraph.mockup.containers.anchor;fontSize=17;fontColor=#666666;align=left;whiteSpace=wrap;" vertex="1" parent="q8RJgFYdpAnxfDV16Ezr-137">
          <mxGeometry x="60" y="12" width="110" height="26" as="geometry" />
        </mxCell>
        <mxCell id="q8RJgFYdpAnxfDV16Ezr-139" value="https://www.draw.io" style="strokeWidth=1;shadow=0;dashed=0;align=center;html=1;shape=mxgraph.mockup.containers.anchor;rSize=0;fontSize=17;fontColor=#666666;align=left;" vertex="1" parent="q8RJgFYdpAnxfDV16Ezr-137">
          <mxGeometry x="130" y="60" width="250" height="26" as="geometry" />
        </mxCell>
        <mxCell id="q8RJgFYdpAnxfDV16Ezr-140" value="" style="verticalLabelPosition=bottom;shadow=0;dashed=0;align=center;html=1;verticalAlign=top;strokeWidth=1;shape=mxgraph.mockup.markup.line;strokeColor=#999999;direction=north;" vertex="1" parent="q8RJgFYdpAnxfDV16Ezr-137">
          <mxGeometry x="27" y="110" width="20" height="870" as="geometry" />
        </mxCell>
        <mxCell id="q8RJgFYdpAnxfDV16Ezr-141" value="" style="sketch=0;pointerEvents=1;shadow=0;dashed=0;html=1;strokeColor=none;fillColor=#505050;labelPosition=center;verticalLabelPosition=bottom;verticalAlign=top;outlineConnect=0;align=center;shape=mxgraph.office.devices.video_camera;" vertex="1" parent="q8RJgFYdpAnxfDV16Ezr-137">
          <mxGeometry x="7" y="130" width="20" height="10" as="geometry" />
        </mxCell>
        <mxCell id="q8RJgFYdpAnxfDV16Ezr-142" value="" style="sketch=0;pointerEvents=1;shadow=0;dashed=0;html=1;strokeColor=none;fillColor=#505050;labelPosition=center;verticalLabelPosition=bottom;verticalAlign=top;outlineConnect=0;align=center;shape=mxgraph.office.devices.tv;" vertex="1" parent="q8RJgFYdpAnxfDV16Ezr-137">
          <mxGeometry x="8" y="170" width="19" height="15" as="geometry" />
        </mxCell>
        <mxCell id="q8RJgFYdpAnxfDV16Ezr-143" value="" style="html=1;verticalLabelPosition=bottom;align=center;labelBackgroundColor=#ffffff;verticalAlign=top;strokeWidth=2;strokeColor=default;shadow=0;dashed=0;shape=mxgraph.ios7.icons.looking_glass;" vertex="1" parent="q8RJgFYdpAnxfDV16Ezr-137">
          <mxGeometry x="11" y="220" width="12" height="10" as="geometry" />
        </mxCell>
        <mxCell id="q8RJgFYdpAnxfDV16Ezr-144" value="" style="html=1;verticalLabelPosition=bottom;align=center;labelBackgroundColor=#ffffff;verticalAlign=top;strokeWidth=2;strokeColor=light-dark(#050505, #32A0FF);shadow=0;dashed=0;shape=mxgraph.ios7.icons.bell;" vertex="1" parent="q8RJgFYdpAnxfDV16Ezr-137">
          <mxGeometry x="11" y="270" width="12" height="13.1" as="geometry" />
        </mxCell>
        <mxCell id="q8RJgFYdpAnxfDV16Ezr-145" value="" style="image;aspect=fixed;html=1;points=[];align=center;fontSize=12;image=img/lib/azure2/general/Download.svg;" vertex="1" parent="q8RJgFYdpAnxfDV16Ezr-137">
          <mxGeometry x="6.04" y="320" width="22.93" height="24" as="geometry" />
        </mxCell>
        <mxCell id="q8RJgFYdpAnxfDV16Ezr-146" value="" style="shape=mxgraph.cisco.storage.diskette;html=1;pointerEvents=1;dashed=0;fillColor=light-dark(#000000,#000000);strokeColor=#ffffff;strokeWidth=2;verticalLabelPosition=bottom;verticalAlign=top;align=center;outlineConnect=0;" vertex="1" parent="q8RJgFYdpAnxfDV16Ezr-137">
          <mxGeometry x="297" y="120" width="20" height="20" as="geometry" />
        </mxCell>
        <mxCell id="q8RJgFYdpAnxfDV16Ezr-147" value="" style="strokeWidth=1;shadow=0;dashed=0;align=center;html=1;shape=mxgraph.mockup.containers.marginRect2;rectMarginTop=32;strokeColor=light-dark(#000000,#000000);gradientColor=none;whiteSpace=wrap;" vertex="1" parent="q8RJgFYdpAnxfDV16Ezr-137">
          <mxGeometry x="285" y="160" width="1250" height="820" as="geometry" />
        </mxCell>
        <mxCell id="q8RJgFYdpAnxfDV16Ezr-148" value="ubication" style="strokeColor=inherit;fillColor=inherit;gradientColor=inherit;strokeWidth=1;shadow=0;dashed=0;align=center;html=1;shape=mxgraph.mockup.containers.rrect;rSize=0;fontSize=17;fontColor=#666666;gradientColor=none;" vertex="1" parent="q8RJgFYdpAnxfDV16Ezr-147">
          <mxGeometry width="60" height="25" relative="1" as="geometry">
            <mxPoint x="10" as="offset" />
          </mxGeometry>
        </mxCell>
        <mxCell id="q8RJgFYdpAnxfDV16Ezr-149" value="Tab 2" style="strokeWidth=1;shadow=0;dashed=0;align=center;html=1;shape=mxgraph.mockup.containers.rrect;rSize=0;fontSize=17;" vertex="1" parent="q8RJgFYdpAnxfDV16Ezr-147">
          <mxGeometry width="60" height="25" relative="1" as="geometry">
            <mxPoint x="75" as="offset" />
          </mxGeometry>
        </mxCell>
        <mxCell id="q8RJgFYdpAnxfDV16Ezr-150" value="&lt;span&gt;filters&lt;/span&gt;" style="strokeColor=#36393d;fillColor=#eeeeee;strokeWidth=1;shadow=0;dashed=0;align=center;html=1;shape=mxgraph.mockup.containers.rrect;rSize=0;fontSize=17;labelBackgroundColor=light-dark(#C3C3C3,#000000);" vertex="1" parent="q8RJgFYdpAnxfDV16Ezr-147">
          <mxGeometry width="60" height="25" relative="1" as="geometry">
            <mxPoint x="140" as="offset" />
          </mxGeometry>
        </mxCell>
        <mxCell id="q8RJgFYdpAnxfDV16Ezr-151" value="" style="strokeWidth=1;shadow=0;dashed=0;align=center;html=1;shape=mxgraph.mockup.containers.topButton;rSize=5;strokeColor=light-dark(#000000,#000000);fillColor=light-dark(#000000, #229afd);gradientColor=none;resizeWidth=1;movable=0;deletable=1;" vertex="1" parent="q8RJgFYdpAnxfDV16Ezr-147">
          <mxGeometry width="1250" height="7" relative="1" as="geometry">
            <mxPoint y="25" as="offset" />
          </mxGeometry>
        </mxCell>
        <mxCell id="q8RJgFYdpAnxfDV16Ezr-152" value="" style="shape=mxgraph.mockup.containers.videoPlayer;shadow=0;dashed=0;strokeWidth=1;strokeColor=#000000;strokeColor2=none;strokeColor3=none;fillColor=#ffffff;fillColor2=none;gradientColor=none;align=right;verticalAlign=bottom;html=1;fontColor=#000000;fontSize=12;fontStyle=0;fontFamily=Courier New;barHeight=0;barPos=0;rounded=0;verticalLabelPosition=middle;" vertex="1" parent="q8RJgFYdpAnxfDV16Ezr-147">
          <mxGeometry x="82.5" y="550" width="255" height="170" as="geometry" />
        </mxCell>
        <mxCell id="q8RJgFYdpAnxfDV16Ezr-179" value="" style="shape=mxgraph.mockup.containers.videoPlayer;shadow=0;dashed=0;strokeWidth=1;strokeColor=#000000;strokeColor2=none;strokeColor3=none;fillColor=#ffffff;fillColor2=none;gradientColor=none;align=right;verticalAlign=bottom;html=1;fontColor=#000000;fontSize=12;fontStyle=0;fontFamily=Courier New;barHeight=0;barPos=0;rounded=0;verticalLabelPosition=middle;" vertex="1" parent="q8RJgFYdpAnxfDV16Ezr-147">
          <mxGeometry x="357.5" y="550" width="255" height="170" as="geometry" />
        </mxCell>
        <mxCell id="q8RJgFYdpAnxfDV16Ezr-180" value="" style="shape=mxgraph.mockup.containers.videoPlayer;shadow=0;dashed=0;strokeWidth=1;strokeColor=#000000;strokeColor2=none;strokeColor3=none;fillColor=#ffffff;fillColor2=none;gradientColor=none;align=right;verticalAlign=bottom;html=1;fontColor=#000000;fontSize=12;fontStyle=0;fontFamily=Courier New;barHeight=0;barPos=0;rounded=0;verticalLabelPosition=middle;" vertex="1" parent="q8RJgFYdpAnxfDV16Ezr-147">
          <mxGeometry x="632.5" y="550" width="255" height="170" as="geometry" />
        </mxCell>
        <mxCell id="q8RJgFYdpAnxfDV16Ezr-181" value="" style="shape=mxgraph.mockup.containers.videoPlayer;shadow=0;dashed=0;strokeWidth=1;strokeColor=#000000;strokeColor2=none;strokeColor3=none;fillColor=#ffffff;fillColor2=none;gradientColor=none;align=right;verticalAlign=bottom;html=1;fontColor=#000000;fontSize=12;fontStyle=0;fontFamily=Courier New;barHeight=0;barPos=0;rounded=0;verticalLabelPosition=middle;" vertex="1" parent="q8RJgFYdpAnxfDV16Ezr-147">
          <mxGeometry x="912.5" y="550" width="255" height="170" as="geometry" />
        </mxCell>
        <mxCell id="q8RJgFYdpAnxfDV16Ezr-182" value="apply" style="rounded=1;fillColor=#0057D8;strokeColor=none;html=1;whiteSpace=wrap;fontColor=#ffffff;align=center;verticalAlign=middle;fontStyle=0;fontSize=12;sketch=0;" vertex="1" parent="q8RJgFYdpAnxfDV16Ezr-147">
          <mxGeometry x="1085" y="750" width="86" height="33" as="geometry" />
        </mxCell>
        <mxCell id="q8RJgFYdpAnxfDV16Ezr-183" value="" style="verticalLabelPosition=bottom;shadow=0;dashed=0;align=center;html=1;verticalAlign=top;strokeWidth=1;shape=mxgraph.mockup.containers.videoPlayer;strokeColor=#666666;strokeColor2=#008cff;strokeColor3=#c4c4c4;textColor=#666666;fillColor2=#008cff;barHeight=30;barPos=20;" vertex="1" parent="q8RJgFYdpAnxfDV16Ezr-147">
          <mxGeometry x="112.5" y="60" width="1025" height="450" as="geometry" />
        </mxCell>
        <mxCell id="q8RJgFYdpAnxfDV16Ezr-184" value="" style="verticalLabelPosition=bottom;shadow=0;dashed=0;align=center;html=1;verticalAlign=top;strokeWidth=1;shape=mxgraph.mockup.forms.splitter;strokeColor=#999999;" vertex="1" parent="q8RJgFYdpAnxfDV16Ezr-147">
          <mxGeometry x="450" y="730" width="350" height="10" as="geometry" />
        </mxCell>
        <mxCell id="q8RJgFYdpAnxfDV16Ezr-153" value="" style="verticalLabelPosition=bottom;shadow=0;dashed=0;align=center;html=1;verticalAlign=top;strokeWidth=1;shape=mxgraph.mockup.markup.line;strokeColor=#999999;" vertex="1" parent="q8RJgFYdpAnxfDV16Ezr-137">
          <mxGeometry x="290" y="190" width="1225" height="20" as="geometry" />
        </mxCell>
        <mxCell id="q8RJgFYdpAnxfDV16Ezr-163" value="" style="verticalLabelPosition=bottom;shadow=0;dashed=0;align=center;html=1;verticalAlign=top;strokeWidth=1;shape=mxgraph.mockup.forms.horSlider;strokeColor=#999999;sliderStyle=basic;sliderPos=20;handleStyle=circle;fillColor2=#ddeeff;direction=north;" vertex="1" parent="q8RJgFYdpAnxfDV16Ezr-137">
          <mxGeometry x="260" y="150" width="30" height="840" as="geometry" />
        </mxCell>
        <mxCell id="q8RJgFYdpAnxfDV16Ezr-164" value="" style="html=1;verticalLabelPosition=bottom;align=center;labelBackgroundColor=#ffffff;verticalAlign=top;strokeWidth=2;strokeColor=light-dark(#000000,#000000);shadow=0;dashed=0;shape=mxgraph.ios7.icons.add;" vertex="1" parent="q8RJgFYdpAnxfDV16Ezr-137">
          <mxGeometry x="330" y="117.5" width="20" height="22.5" as="geometry" />
        </mxCell>
        <mxCell id="q8RJgFYdpAnxfDV16Ezr-165" value="" style="shape=image;html=1;verticalAlign=top;verticalLabelPosition=bottom;labelBackgroundColor=#ffffff;imageAspect=0;aspect=fixed;image=https://cdn1.iconfinder.com/data/icons/material-core/18/delete-128.png" vertex="1" parent="q8RJgFYdpAnxfDV16Ezr-137">
          <mxGeometry x="360" y="117.5" width="20" height="20" as="geometry" />
        </mxCell>
        <mxCell id="q8RJgFYdpAnxfDV16Ezr-166" value="" style="sketch=0;aspect=fixed;pointerEvents=1;shadow=0;dashed=0;html=1;strokeColor=none;labelPosition=center;verticalLabelPosition=bottom;verticalAlign=top;align=center;fillColor=light-dark(#000000, #bfd3ff);shape=mxgraph.mscae.enterprise.import_generic" vertex="1" parent="q8RJgFYdpAnxfDV16Ezr-137">
          <mxGeometry x="390" y="118.75" width="16" height="20" as="geometry" />
        </mxCell>
        <mxCell id="q8RJgFYdpAnxfDV16Ezr-167" value="" style="verticalLabelPosition=bottom;shadow=0;dashed=0;align=center;html=1;verticalAlign=top;strokeWidth=1;shape=mxgraph.mockup.markup.line;strokeColor=#999999;direction=north;" vertex="1" parent="1">
          <mxGeometry x="-435" y="-1059" width="20" height="1000" as="geometry" />
        </mxCell>
        <mxCell id="q8RJgFYdpAnxfDV16Ezr-168" value="cameras" style="swimlane;strokeColor=#999999;swimlaneFillColor=#FFFFFF;fillColor=#ffffff;fontColor=#008CFF;fontStyle=0;childLayout=stackLayout;horizontal=1;startSize=30;horizontalStack=0;resizeParent=1;resizeParentMax=0;resizeLast=0;collapsible=0;marginBottom=0;whiteSpace=wrap;html=1;fontSize=17;" vertex="1" parent="1">
          <mxGeometry x="-653" y="-899" width="220" height="200" as="geometry" />
        </mxCell>
        <mxCell id="q8RJgFYdpAnxfDV16Ezr-169" value="Item 1" style="text;spacing=0;strokeColor=none;align=left;verticalAlign=middle;spacingLeft=7;spacingRight=10;overflow=hidden;points=[[0,0.5],[1,0.5]];portConstraint=eastwest;rotatable=0;whiteSpace=wrap;html=1;fillColor=none;fontColor=#666666;fontSize=17;" vertex="1" parent="q8RJgFYdpAnxfDV16Ezr-168">
          <mxGeometry y="30" width="220" height="20" as="geometry" />
        </mxCell>
        <mxCell id="q8RJgFYdpAnxfDV16Ezr-170" value="Item 2" style="text;spacing=0;strokeColor=none;align=left;verticalAlign=middle;spacingLeft=7;spacingRight=10;overflow=hidden;points=[[0,0.5],[1,0.5]];portConstraint=eastwest;rotatable=0;whiteSpace=wrap;html=1;rSize=5;fillColor=none;fontColor=#666666;fontSize=17;" vertex="1" parent="q8RJgFYdpAnxfDV16Ezr-168">
          <mxGeometry y="50" width="220" height="20" as="geometry" />
        </mxCell>
        <mxCell id="q8RJgFYdpAnxfDV16Ezr-171" value="Item 3" style="text;spacing=0;strokeColor=none;align=left;verticalAlign=middle;spacingLeft=7;spacingRight=10;overflow=hidden;points=[[0,0.5],[1,0.5]];portConstraint=eastwest;rotatable=0;whiteSpace=wrap;html=1;rSize=5;fillColor=#DDEEFF;fontColor=#666666;fontSize=17;" vertex="1" parent="q8RJgFYdpAnxfDV16Ezr-168">
          <mxGeometry y="70" width="220" height="20" as="geometry" />
        </mxCell>
        <mxCell id="q8RJgFYdpAnxfDV16Ezr-172" value="Item 4" style="text;spacing=0;strokeColor=none;align=left;verticalAlign=middle;spacingLeft=7;spacingRight=10;overflow=hidden;points=[[0,0.5],[1,0.5]];portConstraint=eastwest;rotatable=0;whiteSpace=wrap;html=1;fillColor=none;fontColor=#666666;fontSize=17;" vertex="1" parent="q8RJgFYdpAnxfDV16Ezr-168">
          <mxGeometry y="90" width="220" height="20" as="geometry" />
        </mxCell>
        <mxCell id="q8RJgFYdpAnxfDV16Ezr-173" value="" style="text;spacing=0;strokeColor=none;align=left;verticalAlign=middle;spacingLeft=7;spacingRight=10;overflow=hidden;points=[[0,0.5],[1,0.5]];portConstraint=eastwest;rotatable=0;whiteSpace=wrap;html=1;fillColor=none;fontColor=#666666;fontSize=17;" vertex="1" parent="q8RJgFYdpAnxfDV16Ezr-168">
          <mxGeometry y="110" width="220" height="90" as="geometry" />
        </mxCell>
        <mxCell id="q8RJgFYdpAnxfDV16Ezr-174" value="NORMAL" style="whiteSpace=wrap;html=1;dashed=0;align=center;fontSize=12;shape=rect;fillColor=none;strokeColor=none;fontStyle=1;shadow=0;" vertex="1" parent="1">
          <mxGeometry x="-653" y="-1059" width="100" height="36" as="geometry" />
        </mxCell>
        <mxCell id="q8RJgFYdpAnxfDV16Ezr-175" value="PRESSED" style="whiteSpace=wrap;html=1;dashed=0;align=center;fontSize=12;shape=rect;fillColor=#999999;opacity=40;strokeColor=none;fontStyle=1;" vertex="1" parent="1">
          <mxGeometry x="-553" y="-1059" width="100" height="36" as="geometry" />
        </mxCell>
        <mxCell id="q8RJgFYdpAnxfDV16Ezr-176" value="Search" style="strokeWidth=1;shadow=0;dashed=0;align=center;html=1;shape=mxgraph.mockup.forms.searchBox;strokeColor=#999999;mainText=;strokeColor2=#008cff;fontColor=#666666;fontSize=17;align=left;spacingLeft=3;whiteSpace=wrap;" vertex="1" parent="1">
          <mxGeometry x="-653" y="-928" width="150" height="30" as="geometry" />
        </mxCell>
        <mxCell id="q8RJgFYdpAnxfDV16Ezr-177" value="" style="shape=mxgraph.signs.tech.video_camera;html=1;pointerEvents=1;fillColor=#000000;strokeColor=none;verticalLabelPosition=bottom;verticalAlign=top;align=center;" vertex="1" parent="1">
          <mxGeometry x="-628" y="-989" width="50" height="20" as="geometry" />
        </mxCell>
        <mxCell id="q8RJgFYdpAnxfDV16Ezr-185" value="" style="strokeWidth=1;shadow=0;dashed=0;align=center;html=1;shape=mxgraph.mockup.containers.browserWindow;rSize=0;strokeColor=default;strokeColor2=#008cff;strokeColor3=#c4c4c4;mainText=,;recursiveResize=0;" vertex="1" parent="1">
          <mxGeometry x="-2370" y="-1140" width="1560" height="990" as="geometry" />
        </mxCell>
        <mxCell id="q8RJgFYdpAnxfDV16Ezr-186" value="Page 1" style="strokeWidth=1;shadow=0;dashed=0;align=center;html=1;shape=mxgraph.mockup.containers.anchor;fontSize=17;fontColor=#666666;align=left;whiteSpace=wrap;" vertex="1" parent="q8RJgFYdpAnxfDV16Ezr-185">
          <mxGeometry x="60" y="12" width="110" height="26" as="geometry" />
        </mxCell>
        <mxCell id="q8RJgFYdpAnxfDV16Ezr-187" value="https://www.draw.io" style="strokeWidth=1;shadow=0;dashed=0;align=center;html=1;shape=mxgraph.mockup.containers.anchor;rSize=0;fontSize=17;fontColor=#666666;align=left;" vertex="1" parent="q8RJgFYdpAnxfDV16Ezr-185">
          <mxGeometry x="130" y="60" width="250" height="26" as="geometry" />
        </mxCell>
        <mxCell id="q8RJgFYdpAnxfDV16Ezr-188" value="" style="verticalLabelPosition=bottom;shadow=0;dashed=0;align=center;html=1;verticalAlign=top;strokeWidth=1;shape=mxgraph.mockup.markup.line;strokeColor=#999999;direction=north;" vertex="1" parent="q8RJgFYdpAnxfDV16Ezr-185">
          <mxGeometry x="27" y="110" width="20" height="870" as="geometry" />
        </mxCell>
        <mxCell id="q8RJgFYdpAnxfDV16Ezr-189" value="" style="sketch=0;pointerEvents=1;shadow=0;dashed=0;html=1;strokeColor=none;fillColor=#505050;labelPosition=center;verticalLabelPosition=bottom;verticalAlign=top;outlineConnect=0;align=center;shape=mxgraph.office.devices.video_camera;" vertex="1" parent="q8RJgFYdpAnxfDV16Ezr-185">
          <mxGeometry x="7" y="130" width="20" height="10" as="geometry" />
        </mxCell>
        <mxCell id="q8RJgFYdpAnxfDV16Ezr-190" value="" style="sketch=0;pointerEvents=1;shadow=0;dashed=0;html=1;strokeColor=none;fillColor=#505050;labelPosition=center;verticalLabelPosition=bottom;verticalAlign=top;outlineConnect=0;align=center;shape=mxgraph.office.devices.tv;" vertex="1" parent="q8RJgFYdpAnxfDV16Ezr-185">
          <mxGeometry x="8" y="170" width="19" height="15" as="geometry" />
        </mxCell>
        <mxCell id="q8RJgFYdpAnxfDV16Ezr-191" value="" style="html=1;verticalLabelPosition=bottom;align=center;labelBackgroundColor=#ffffff;verticalAlign=top;strokeWidth=2;strokeColor=default;shadow=0;dashed=0;shape=mxgraph.ios7.icons.looking_glass;" vertex="1" parent="q8RJgFYdpAnxfDV16Ezr-185">
          <mxGeometry x="11" y="220" width="12" height="10" as="geometry" />
        </mxCell>
        <mxCell id="q8RJgFYdpAnxfDV16Ezr-192" value="" style="html=1;verticalLabelPosition=bottom;align=center;labelBackgroundColor=#ffffff;verticalAlign=top;strokeWidth=2;strokeColor=light-dark(#050505, #32A0FF);shadow=0;dashed=0;shape=mxgraph.ios7.icons.bell;" vertex="1" parent="q8RJgFYdpAnxfDV16Ezr-185">
          <mxGeometry x="11" y="270" width="12" height="13.1" as="geometry" />
        </mxCell>
        <mxCell id="q8RJgFYdpAnxfDV16Ezr-193" value="" style="image;aspect=fixed;html=1;points=[];align=center;fontSize=12;image=img/lib/azure2/general/Download.svg;" vertex="1" parent="q8RJgFYdpAnxfDV16Ezr-185">
          <mxGeometry x="6.04" y="320" width="22.93" height="24" as="geometry" />
        </mxCell>
        <mxCell id="q8RJgFYdpAnxfDV16Ezr-194" value="" style="shape=mxgraph.cisco.storage.diskette;html=1;pointerEvents=1;dashed=0;fillColor=light-dark(#000000,#000000);strokeColor=#ffffff;strokeWidth=2;verticalLabelPosition=bottom;verticalAlign=top;align=center;outlineConnect=0;" vertex="1" parent="q8RJgFYdpAnxfDV16Ezr-185">
          <mxGeometry x="297" y="120" width="20" height="20" as="geometry" />
        </mxCell>
        <mxCell id="q8RJgFYdpAnxfDV16Ezr-195" value="" style="strokeWidth=1;shadow=0;dashed=0;align=center;html=1;shape=mxgraph.mockup.containers.marginRect2;rectMarginTop=32;whiteSpace=wrap;" vertex="1" parent="q8RJgFYdpAnxfDV16Ezr-185">
          <mxGeometry x="285" y="160" width="1250" height="820" as="geometry" />
        </mxCell>
        <mxCell id="q8RJgFYdpAnxfDV16Ezr-196" value="ubication" style="strokeColor=#36393d;fillColor=#eeeeee;strokeWidth=1;shadow=0;dashed=0;align=center;html=1;shape=mxgraph.mockup.containers.rrect;rSize=0;fontSize=17;gradientColor=none;" vertex="1" parent="q8RJgFYdpAnxfDV16Ezr-195">
          <mxGeometry width="60" height="25" relative="1" as="geometry">
            <mxPoint x="10" as="offset" />
          </mxGeometry>
        </mxCell>
        <mxCell id="q8RJgFYdpAnxfDV16Ezr-197" value="Tab 2" style="strokeWidth=1;shadow=0;dashed=0;align=center;html=1;shape=mxgraph.mockup.containers.rrect;rSize=0;fontSize=17;" vertex="1" parent="q8RJgFYdpAnxfDV16Ezr-195">
          <mxGeometry width="60" height="25" relative="1" as="geometry">
            <mxPoint x="75" as="offset" />
          </mxGeometry>
        </mxCell>
        <mxCell id="q8RJgFYdpAnxfDV16Ezr-198" value="filters" style="strokeColor=inherit;fillColor=inherit;gradientColor=inherit;strokeWidth=1;shadow=0;dashed=0;align=center;html=1;shape=mxgraph.mockup.containers.rrect;rSize=0;fontSize=17;fontColor=#666666;gradientColor=none;" vertex="1" parent="q8RJgFYdpAnxfDV16Ezr-195">
          <mxGeometry width="60" height="25" relative="1" as="geometry">
            <mxPoint x="140" as="offset" />
          </mxGeometry>
        </mxCell>
        <mxCell id="q8RJgFYdpAnxfDV16Ezr-199" value="" style="strokeWidth=1;shadow=0;dashed=0;align=center;html=1;shape=mxgraph.mockup.containers.topButton;rSize=5;strokeColor=light-dark(#000000,#000000);fillColor=light-dark(#000000, #229afd);gradientColor=none;resizeWidth=1;movable=0;deletable=1;" vertex="1" parent="q8RJgFYdpAnxfDV16Ezr-195">
          <mxGeometry width="1250" height="7" relative="1" as="geometry">
            <mxPoint y="25" as="offset" />
          </mxGeometry>
        </mxCell>
        <mxCell id="q8RJgFYdpAnxfDV16Ezr-226" value="Map" style="html=1;whiteSpace=wrap;strokeColor=none;fillColor=#0079D6;labelPosition=center;verticalLabelPosition=middle;verticalAlign=top;align=center;fontSize=12;outlineConnect=0;spacingTop=-6;fontColor=#FFFFFF;sketch=0;shape=mxgraph.sitemap.map;" vertex="1" parent="q8RJgFYdpAnxfDV16Ezr-195">
          <mxGeometry x="287.5" y="60" width="675" height="450" as="geometry" />
        </mxCell>
        <mxCell id="q8RJgFYdpAnxfDV16Ezr-227" value="" style="shape=mxgraph.mockup.containers.videoPlayer;shadow=0;dashed=0;strokeWidth=1;strokeColor=#000000;strokeColor2=none;strokeColor3=none;fillColor=#ffffff;fillColor2=none;gradientColor=none;align=right;verticalAlign=bottom;html=1;fontColor=#000000;fontSize=12;fontStyle=0;fontFamily=Courier New;barHeight=0;barPos=0;rounded=0;verticalLabelPosition=middle;" vertex="1" parent="q8RJgFYdpAnxfDV16Ezr-195">
          <mxGeometry x="82.5" y="570" width="255" height="170" as="geometry" />
        </mxCell>
        <mxCell id="q8RJgFYdpAnxfDV16Ezr-228" value="" style="shape=mxgraph.mockup.containers.videoPlayer;shadow=0;dashed=0;strokeWidth=1;strokeColor=#000000;strokeColor2=none;strokeColor3=none;fillColor=#ffffff;fillColor2=none;gradientColor=none;align=right;verticalAlign=bottom;html=1;fontColor=#000000;fontSize=12;fontStyle=0;fontFamily=Courier New;barHeight=0;barPos=0;rounded=0;verticalLabelPosition=middle;" vertex="1" parent="q8RJgFYdpAnxfDV16Ezr-195">
          <mxGeometry x="357.5" y="570" width="255" height="170" as="geometry" />
        </mxCell>
        <mxCell id="q8RJgFYdpAnxfDV16Ezr-229" value="" style="shape=mxgraph.mockup.containers.videoPlayer;shadow=0;dashed=0;strokeWidth=1;strokeColor=#000000;strokeColor2=none;strokeColor3=none;fillColor=#ffffff;fillColor2=none;gradientColor=none;align=right;verticalAlign=bottom;html=1;fontColor=#000000;fontSize=12;fontStyle=0;fontFamily=Courier New;barHeight=0;barPos=0;rounded=0;verticalLabelPosition=middle;" vertex="1" parent="q8RJgFYdpAnxfDV16Ezr-195">
          <mxGeometry x="632.5" y="570" width="255" height="170" as="geometry" />
        </mxCell>
        <mxCell id="q8RJgFYdpAnxfDV16Ezr-230" value="" style="shape=mxgraph.mockup.containers.videoPlayer;shadow=0;dashed=0;strokeWidth=1;strokeColor=#000000;strokeColor2=none;strokeColor3=none;fillColor=#ffffff;fillColor2=none;gradientColor=none;align=right;verticalAlign=bottom;html=1;fontColor=#000000;fontSize=12;fontStyle=0;fontFamily=Courier New;barHeight=0;barPos=0;rounded=0;verticalLabelPosition=middle;" vertex="1" parent="q8RJgFYdpAnxfDV16Ezr-195">
          <mxGeometry x="912.5" y="570" width="255" height="170" as="geometry" />
        </mxCell>
        <mxCell id="q8RJgFYdpAnxfDV16Ezr-201" value="" style="verticalLabelPosition=bottom;shadow=0;dashed=0;align=center;html=1;verticalAlign=top;strokeWidth=1;shape=mxgraph.mockup.markup.line;strokeColor=#999999;" vertex="1" parent="q8RJgFYdpAnxfDV16Ezr-185">
          <mxGeometry x="290" y="190" width="1225" height="20" as="geometry" />
        </mxCell>
        <mxCell id="q8RJgFYdpAnxfDV16Ezr-211" value="" style="verticalLabelPosition=bottom;shadow=0;dashed=0;align=center;html=1;verticalAlign=top;strokeWidth=1;shape=mxgraph.mockup.forms.horSlider;strokeColor=#999999;sliderStyle=basic;sliderPos=20;handleStyle=circle;fillColor2=#ddeeff;direction=north;" vertex="1" parent="q8RJgFYdpAnxfDV16Ezr-185">
          <mxGeometry x="260" y="150" width="30" height="840" as="geometry" />
        </mxCell>
        <mxCell id="q8RJgFYdpAnxfDV16Ezr-212" value="" style="html=1;verticalLabelPosition=bottom;align=center;labelBackgroundColor=#ffffff;verticalAlign=top;strokeWidth=2;strokeColor=light-dark(#000000,#000000);shadow=0;dashed=0;shape=mxgraph.ios7.icons.add;" vertex="1" parent="q8RJgFYdpAnxfDV16Ezr-185">
          <mxGeometry x="330" y="117.5" width="20" height="22.5" as="geometry" />
        </mxCell>
        <mxCell id="q8RJgFYdpAnxfDV16Ezr-213" value="" style="shape=image;html=1;verticalAlign=top;verticalLabelPosition=bottom;labelBackgroundColor=#ffffff;imageAspect=0;aspect=fixed;image=https://cdn1.iconfinder.com/data/icons/material-core/18/delete-128.png" vertex="1" parent="q8RJgFYdpAnxfDV16Ezr-185">
          <mxGeometry x="360" y="117.5" width="20" height="20" as="geometry" />
        </mxCell>
        <mxCell id="q8RJgFYdpAnxfDV16Ezr-214" value="" style="sketch=0;aspect=fixed;pointerEvents=1;shadow=0;dashed=0;html=1;strokeColor=none;labelPosition=center;verticalLabelPosition=bottom;verticalAlign=top;align=center;fillColor=light-dark(#000000, #bfd3ff);shape=mxgraph.mscae.enterprise.import_generic" vertex="1" parent="q8RJgFYdpAnxfDV16Ezr-185">
          <mxGeometry x="390" y="118.75" width="16" height="20" as="geometry" />
        </mxCell>
        <mxCell id="q8RJgFYdpAnxfDV16Ezr-215" value="cameras" style="swimlane;strokeColor=#999999;swimlaneFillColor=#FFFFFF;fillColor=#ffffff;fontColor=#008CFF;fontStyle=0;childLayout=stackLayout;horizontal=1;startSize=30;horizontalStack=0;resizeParent=1;resizeParentMax=0;resizeLast=0;collapsible=0;marginBottom=0;whiteSpace=wrap;html=1;fontSize=17;" vertex="1" parent="1">
          <mxGeometry x="-2323" y="-870" width="220" height="200" as="geometry" />
        </mxCell>
        <mxCell id="q8RJgFYdpAnxfDV16Ezr-216" value="Item 1" style="text;spacing=0;strokeColor=none;align=left;verticalAlign=middle;spacingLeft=7;spacingRight=10;overflow=hidden;points=[[0,0.5],[1,0.5]];portConstraint=eastwest;rotatable=0;whiteSpace=wrap;html=1;fillColor=none;fontColor=#666666;fontSize=17;" vertex="1" parent="q8RJgFYdpAnxfDV16Ezr-215">
          <mxGeometry y="30" width="220" height="20" as="geometry" />
        </mxCell>
        <mxCell id="q8RJgFYdpAnxfDV16Ezr-217" value="Item 2" style="text;spacing=0;strokeColor=none;align=left;verticalAlign=middle;spacingLeft=7;spacingRight=10;overflow=hidden;points=[[0,0.5],[1,0.5]];portConstraint=eastwest;rotatable=0;whiteSpace=wrap;html=1;rSize=5;fillColor=none;fontColor=#666666;fontSize=17;" vertex="1" parent="q8RJgFYdpAnxfDV16Ezr-215">
          <mxGeometry y="50" width="220" height="20" as="geometry" />
        </mxCell>
        <mxCell id="q8RJgFYdpAnxfDV16Ezr-218" value="Item 3" style="text;spacing=0;strokeColor=none;align=left;verticalAlign=middle;spacingLeft=7;spacingRight=10;overflow=hidden;points=[[0,0.5],[1,0.5]];portConstraint=eastwest;rotatable=0;whiteSpace=wrap;html=1;rSize=5;fillColor=#DDEEFF;fontColor=#666666;fontSize=17;" vertex="1" parent="q8RJgFYdpAnxfDV16Ezr-215">
          <mxGeometry y="70" width="220" height="20" as="geometry" />
        </mxCell>
        <mxCell id="q8RJgFYdpAnxfDV16Ezr-219" value="Item 4" style="text;spacing=0;strokeColor=none;align=left;verticalAlign=middle;spacingLeft=7;spacingRight=10;overflow=hidden;points=[[0,0.5],[1,0.5]];portConstraint=eastwest;rotatable=0;whiteSpace=wrap;html=1;fillColor=none;fontColor=#666666;fontSize=17;" vertex="1" parent="q8RJgFYdpAnxfDV16Ezr-215">
          <mxGeometry y="90" width="220" height="20" as="geometry" />
        </mxCell>
        <mxCell id="q8RJgFYdpAnxfDV16Ezr-220" value="" style="text;spacing=0;strokeColor=none;align=left;verticalAlign=middle;spacingLeft=7;spacingRight=10;overflow=hidden;points=[[0,0.5],[1,0.5]];portConstraint=eastwest;rotatable=0;whiteSpace=wrap;html=1;fillColor=none;fontColor=#666666;fontSize=17;" vertex="1" parent="q8RJgFYdpAnxfDV16Ezr-215">
          <mxGeometry y="110" width="220" height="90" as="geometry" />
        </mxCell>
        <mxCell id="q8RJgFYdpAnxfDV16Ezr-221" value="NORMAL" style="whiteSpace=wrap;html=1;dashed=0;align=center;fontSize=12;shape=rect;fillColor=none;strokeColor=none;fontStyle=1;shadow=0;" vertex="1" parent="1">
          <mxGeometry x="-2323" y="-1030" width="100" height="36" as="geometry" />
        </mxCell>
        <mxCell id="q8RJgFYdpAnxfDV16Ezr-222" value="PRESSED" style="whiteSpace=wrap;html=1;dashed=0;align=center;fontSize=12;shape=rect;fillColor=#999999;opacity=40;strokeColor=none;fontStyle=1;" vertex="1" parent="1">
          <mxGeometry x="-2223" y="-1030" width="100" height="36" as="geometry" />
        </mxCell>
        <mxCell id="q8RJgFYdpAnxfDV16Ezr-223" value="Search" style="strokeWidth=1;shadow=0;dashed=0;align=center;html=1;shape=mxgraph.mockup.forms.searchBox;strokeColor=#999999;mainText=;strokeColor2=#008cff;fontColor=#666666;fontSize=17;align=left;spacingLeft=3;whiteSpace=wrap;" vertex="1" parent="1">
          <mxGeometry x="-2323" y="-899" width="150" height="30" as="geometry" />
        </mxCell>
        <mxCell id="q8RJgFYdpAnxfDV16Ezr-224" value="" style="shape=mxgraph.signs.tech.video_camera;html=1;pointerEvents=1;fillColor=#000000;strokeColor=none;verticalLabelPosition=bottom;verticalAlign=top;align=center;" vertex="1" parent="1">
          <mxGeometry x="-2298" y="-960" width="50" height="20" as="geometry" />
        </mxCell>
      </root>
    </mxGraphModel>
  </diagram>
</mxfile>
